<svg
                viewBox="0 0 24 24"
                x="0"
                y="0"
                fill="none"
                xmlns="http://www.w3.org/2000/svg"
              >
                <g
                  id="Frame_2"
                  data-node-id="11:258"
                  xmlns="http://www.w3.org/2000/svg"
                >
                  <path
                    id="Vector_2"
                    data-node-id="11:259"
                    d="M21,4.5h-18c-0.398,0 -0.779,0.158 -1.061,0.439c-0.281,0.282 -0.439,0.663 -0.439,1.061v12c0,0.398 0.158,0.779 0.439,1.061c0.282,0.281 0.663,0.439 1.061,0.439h18c0.398,0 0.779,-0.158 1.061,-0.439c0.281,-0.282 0.439,-0.663 0.439,-1.061v-12c0,-0.398 -0.158,-0.779 -0.439,-1.061c-0.282,-0.281 -0.663,-0.439 -1.061,-0.439zM19.35,6l-7.35,5.085l-7.35,-5.085zM3,18v-11.318l8.573,5.933c0.125,0.087 0.274,0.134 0.427,0.134c0.153,0 0.302,-0.047 0.427,-0.134l8.573,-5.933v11.318z"
                    fill="#512689"
                  />
                </g>
              </svg>