
              <svg
                viewBox="0 0 24 24"
                x="0"
                y="0"
                fill="none"
                xmlns="http://www.w3.org/2000/svg"
              >
                <g
                  id="Frame"
                  data-node-id="11:254"
                  xmlns="http://www.w3.org/2000/svg"
                >
                  <path
                    id="Vector"
                    data-node-id="11:255"
                    d="M10.554,6.24l-3.383,-3.905c-0.39,-0.45 -1.105,-0.448 -1.558,0.006l-2.782,2.787c-0.828,0.829 -1.065,2.06 -0.586,3.047c2.862,5.925 7.64,10.71 13.561,13.58c0.986,0.479 2.216,0.242 3.044,-0.587l2.808,-2.813c0.455,-0.455 0.456,-1.174 0.002,-1.564l-3.92,-3.365c-0.41,-0.352 -1.047,-0.306 -1.458,0.106l-1.364,1.366c-0.07,0.073 -0.162,0.121 -0.262,0.137c-0.1,0.016 -0.202,-0.001 -0.291,-0.049c-2.23,-1.284 -4.079,-3.136 -5.36,-5.367c-0.048,-0.089 -0.065,-0.192 -0.049,-0.292c0.015,-0.1 0.064,-0.192 0.137,-0.262l1.36,-1.361c0.412,-0.414 0.457,-1.054 0.101,-1.465z"
                    stroke="#512689"
                    stroke-width="2"
                    stroke-linecap="round"
                    stroke-linejoin="round"
                  />
                </g>
              </svg>
            